PathFileType	4	(X/Y/Z)	D:\Documents\paper\Opensim\Pipline\Result\suihongtao\30DJ0001\original_data\suihongtao_30DJ0001_static.trc	
DataRate	CameraRate	NumFrames	NumMarkers	Units	OrigDataRate	OrigDataStartFrame	OrigNumFrames	
200	200	8	27	mm	200	0	1108	
Frame#	Time	Top.Head			L.Acromium			R.Acromium			Sternum			L.ASIS			R.ASIS			L.PSIS			R.PSIS			V.Sacral			L.Thigh.Front			L.Knee.Lat			L.Knee.Med			L.Shank.Front			L.Ankle.Lat			L.Ankle.Med			L.Heel			L.Toe.Lat			L.Toe.Tip			R.Thigh.Front			R.Knee.Lat			R.Knee.Med			R.Shank.Front			R.Ankle.Lat			R.Ankle.Med			R.Heel			R.Toe.Lat			R.Toe.Tip
		X1	Y1	Z1	X2	Y2	Z2	X3	Y3	Z3	X4	Y4	Z4	X5	Y5	Z5	X6	Y6	Z6	X7	Y7	Z7	X8	Y8	Z8	X9	Y9	Z9	X10	Y10	Z10	X11	Y11	Z11	X12	Y12	Z12	X13	Y13	Z13	X14	Y14	Z14	X15	Y15	Z15	X16	Y16	Z16	X17	Y17	Z17	X18	Y18	Z18	X19	Y19	Z19	X20	Y20	Z20	X21	Y21	Z21	X22	Y22	Z22	X23	Y23	Z23	X24	Y24	Z24	X25	Y25	Z25	X26	Y26	Z26	X27	Y27	Z27
1	0.000000	215.519611	1011.015287	-482.112435	126.956789	814.727783	-401.945836	303.307159	813.061703	-534.493288	183.650408	808.096653	-516.182430	112.115633	553.959746	-473.858544	222.285855	554.800165	-569.067196	223.879821	565.577540	-412.421810	271.583429	562.643905	-448.759905	247.731723	564.110634	-430.590861	130.724739	333.160563	-471.519570	132.449732	278.054206	-396.634495	201.058445	263.367704	-435.853189	147.462125	235.462346	-432.637163	139.488453	53.841102	-383.270941	171.789750	63.714094	-424.950237	181.375552	29.832557	-371.962229	88.807935	20.340541	-431.330141	102.746667	34.384817	-470.759344	223.298087	328.083628	-532.334057	302.111364	274.277742	-518.505971	246.122320	263.020353	-465.842376	269.859012	233.117944	-514.326297	313.795103	55.687828	-503.741025	267.742806	62.026156	-480.691523	311.183938	27.770661	-452.311363	294.107612	21.594170	-560.781609	241.349185	30.812894	-560.420033	
2	0.005000	287.875442	1350.396553	-643.939659	169.581801	1088.220301	-536.859145	405.129674	1085.993007	-713.907849	245.305256	1079.362032	-689.446612	149.749294	739.915259	-632.913136	296.901031	741.040100	-760.084783	299.032046	755.429212	-550.857096	362.744185	751.510908	-599.393706	330.888239	753.470058	-575.125389	174.610742	444.989705	-629.788268	176.904358	371.390318	-529.773713	268.543302	351.773804	-582.162695	196.960634	314.498907	-577.860941	186.310710	71.911618	-511.933320	229.455402	85.097625	-567.596644	242.261049	39.845555	-496.825221	118.616394	27.165300	-576.121147	137.236528	45.921558	-628.789401	298.252750	438.214753	-711.025268	403.524064	366.346093	-692.556348	328.734441	351.322100	-622.221347	360.446618	311.374503	-686.974916	419.130618	74.378099	-672.837191	357.619737	82.845178	-642.049916	415.639152	37.088153	-604.148421	392.832397	28.839046	-749.027085	322.362259	41.153470	-748.542634	
3	0.010000	334.219326	1567.729306	-747.561743	196.885878	1263.360738	-623.242957	470.341019	1260.771018	-828.794768	284.793510	1253.074941	-800.392359	173.847917	858.997512	-734.756196	344.679207	860.304181	-882.399885	347.157309	877.002769	-639.499800	421.118595	872.454764	-695.849206	384.138083	874.728899	-667.674459	202.717650	516.597500	-731.129057	205.367402	431.158606	-615.030008	311.754184	408.387391	-675.857183	228.656522	365.108242	-670.854952	216.293792	83.481260	-594.328590	266.382712	98.790129	-658.943617	281.251688	46.255932	-576.786655	137.703185	31.533221	-668.843589	159.322460	53.306089	-729.991169	346.248396	508.739786	-825.450863	468.465364	425.303030	-804.011370	381.629969	407.873612	-722.363878	418.456620	361.489791	-797.535083	486.584110	86.342947	-781.123061	415.175220	96.175383	-745.379985	482.528103	43.052391	-701.384866	456.051565	33.477126	-869.576181	374.238838	47.774160	-869.012898	
4	0.015000	355.538398	1667.650297	-795.192409	209.449947	1343.885621	-662.943433	500.331021	1341.123475	-881.606370	302.957464	1332.941710	-851.388386	184.926514	913.747249	-781.563367	366.639314	915.136039	-938.623895	369.283202	932.893483	-680.241341	447.955253	928.055519	-740.186830	408.619361	930.474761	-710.213995	215.641856	549.515125	-777.708372	218.448588	458.635492	-654.223259	331.615555	434.418457	-718.935297	243.226795	388.372323	-713.606103	230.079448	88.798756	-632.212901	283.359968	105.085541	-700.941926	299.179134	49.201219	-613.552424	146.477631	33.538954	-711.475313	169.476775	56.700261	-776.522739	368.308469	541.164893	-878.053821	498.320873	452.407433	-855.249422	405.939416	433.877325	-768.405174	445.125535	384.532041	-848.367510	517.591511	91.838846	-830.913893	441.637050	102.302322	-792.888610	513.279287	45.791355	-746.093828	485.115740	35.610065	-925.000518	398.087527	50.817489	-924.402462	
5	0.020000	360.560193	1691.108281	-806.361319	212.414415	1362.793906	-672.242890	507.382845	1359.981794	-893.992797	307.235248	1351.693295	-863.342979	187.526199	926.601822	-792.530790	371.785239	928.007901	-951.807694	374.478140	946.010257	-689.787440	454.255063	941.100702	-750.584893	414.366747	943.555805	-720.186033	218.675622	557.238874	-788.628299	221.514396	465.084364	-663.418662	336.271763	440.533511	-729.048212	246.644738	393.831005	-723.639185	233.318036	90.046105	-641.109106	287.345815	106.562965	-710.802699	303.389158	49.890803	-622.186972	148.538146	34.007582	-721.485287	171.862340	57.499701	-787.450204	373.477858	548.779959	-890.397542	505.326443	458.769654	-867.272937	411.635184	439.984624	-779.213601	451.382892	389.943583	-860.304431	524.856758	93.126064	-842.621892	447.849079	103.738636	-804.046408	520.496658	46.429430	-756.593944	491.938409	36.112458	-938.011915	403.684528	51.530584	-937.409083	
6	0.025000	357.933347	1678.681414	-800.420227	210.874640	1352.785777	-667.275169	503.668306	1349.980758	-887.407574	304.996284	1341.764188	-856.975005	186.146056	919.795453	-786.679465	369.041147	921.189495	-944.793302	371.726834	939.053234	-684.694407	450.916033	934.172427	-745.055656	411.321592	936.613139	-714.874890	217.066911	553.140362	-782.815750	219.881900	461.665185	-658.535458	333.791905	437.300107	-723.686525	244.828542	390.936409	-718.317480	231.606066	89.383525	-636.400418	285.236111	105.777647	-705.579928	301.160882	49.522192	-617.617860	147.448602	33.755722	-716.184531	170.602822	57.083121	-781.666894	370.720838	544.753028	-883.849198	501.606686	455.399032	-860.894703	408.601348	436.751700	-773.485397	448.060756	387.081492	-853.987208	520.968539	92.445788	-836.475733	444.557403	102.972724	-798.145101	516.669397	46.081282	-751.039114	488.323258	35.848128	-931.116641	400.716962	51.148059	-930.523390	
7	0.030000	353.386375	1657.247623	-790.186410	208.206634	1335.521071	-658.726906	497.250016	1332.737095	-876.060260	301.120555	1324.637716	-846.008901	183.766007	908.055312	-776.606874	364.319331	909.431469	-932.710423	366.979892	927.057881	-675.930480	445.155352	922.231019	-735.528884	406.067778	924.644685	-705.729591	214.293444	546.075760	-772.805762	217.072400	455.769123	-650.117045	329.520634	431.718400	-714.436842	241.697908	385.947474	-709.140437	228.649528	88.240299	-628.276379	281.597478	104.423718	-696.570981	297.315718	48.887510	-609.732873	145.568340	33.323759	-707.039716	168.428064	56.360076	-771.687176	365.975391	537.804332	-872.560439	495.193117	449.587421	-849.899832	403.384981	431.172967	-763.603032	442.334823	382.142957	-843.086506	514.268542	91.279905	-825.869416	438.880747	101.652894	-787.961156	510.070419	45.486967	-741.453772	482.087932	35.388569	-919.223883	395.601600	50.488405	-918.642571	
8	0.035000	349.662284	1639.675392	-781.795833	206.026214	1321.369992	-651.714296	491.989148	1318.599430	-866.753709	297.944084	1310.599543	-837.016728	181.813254	898.432004	-768.343304	360.449419	899.794328	-922.801628	363.087512	917.223594	-668.747698	440.429313	912.442442	-727.715133	401.758547	914.833168	-698.231405	212.018338	540.286840	-764.599536	214.770790	450.935369	-643.210108	326.017592	427.142120	-706.848471	239.130127	381.859478	-701.613809	226.224063	87.300293	-621.615261	278.614236	103.313170	-689.186132	294.162353	48.365818	-603.267120	144.026631	32.970467	-699.541163	166.644372	55.764753	-763.503133	362.084422	532.107322	-863.305521	489.932469	444.825554	-840.887178	399.116754	426.600253	-755.495873	437.639751	378.094824	-834.147401	508.764845	90.329637	-817.192680	434.227650	100.570226	-779.611141	504.661172	45.002874	-733.593428	476.975548	35.008195	-909.473895	391.410307	49.945351	-908.899917	
